<svg width="675" height="79" viewBox="0 0 675 79" fill="none" xmlns="http://www.w3.org/2000/svg">
<path d="M13.96 56.3859H16.06V65.6459H13.96V56.3859ZM8.04 57.1859H10.32C10.32 61.9059 7.3 64.8059 1.88 66.0659L1.16 64.3659C5.82 63.3459 8.04 61.1259 8.04 58.2859V57.1859ZM2.16 57.1859H8.94V58.8859H2.16V57.1859ZM9.64 58.8659H14.26V60.4859H9.64V58.8659ZM9.5 62.3859H14.16V63.9859H9.5V62.3859ZM4.16 66.4059H16.06V71.1459H6.28V73.7659H4.2V69.5659H13.96V68.0659H4.16V66.4059ZM4.2 72.8259H16.56V74.4859H4.2V72.8259ZM32.8984 56.3859H34.8984V74.6659H32.8984V56.3859ZM26.5184 62.8059H29.8184V64.5259H26.5184V62.8059ZM29.2184 56.7459H31.1784V73.7659H29.2184V56.7459ZM22.8184 59.2859H24.4184V61.4059C24.4184 65.4459 23.0584 69.3659 20.2784 71.1259L19.0184 69.5659C21.6184 67.9659 22.8184 64.6659 22.8184 61.4059V59.2859ZM23.2784 59.2859H24.8584V61.4059C24.8584 64.5259 26.0184 67.6459 28.5784 69.1459L27.3384 70.6859C24.5584 69.0259 23.2784 65.3259 23.2784 61.4059V59.2859ZM19.5984 58.3859H27.8584V60.0859H19.5984V58.3859ZM42.1769 63.8859H44.2769V66.6659H42.1769V63.8859ZM43.1969 57.1859C45.8369 57.1859 47.7169 58.6659 47.7169 60.8459C47.7169 63.0059 45.8369 64.4859 43.1969 64.4859C40.5569 64.4859 38.6569 63.0059 38.6569 60.8459C38.6569 58.6659 40.5569 57.1859 43.1969 57.1859ZM43.1969 58.7659C41.6769 58.7659 40.6169 59.5659 40.6169 60.8459C40.6169 62.1059 41.6769 62.9059 43.1969 62.9059C44.7169 62.9059 45.7569 62.1059 45.7569 60.8459C45.7569 59.5659 44.7169 58.7659 43.1969 58.7659ZM49.9169 56.4059H52.0169V70.3659H49.9169V56.4059ZM51.2169 62.3859H54.5169V64.1059H51.2169V62.3859ZM40.1769 72.5859H52.6569V74.2859H40.1769V72.5859ZM40.1769 69.1659H42.2769V73.3259H40.1769V69.1659ZM37.9169 67.8059L37.6569 66.1059C40.8169 66.1059 45.1969 66.0859 48.8569 65.5259L48.9969 67.0459C45.2369 67.7459 40.9969 67.8059 37.9169 67.8059ZM60.5353 67.0659H62.5953V71.4859H60.5353V67.0659ZM66.3553 67.0459H68.3953V71.4659H66.3553V67.0459ZM56.1153 70.8059H72.6753V72.5259H56.1153V70.8059ZM58.0553 57.6659H70.6953V63.4259H60.1753V66.8459H58.0953V61.7659H68.6153V59.3459H58.0553V57.6659ZM58.0953 65.9459H71.1153V67.6459H58.0953V65.9459Z" fill="#F28482"/>
<path d="M273.7 73.0059V71.1059H276.94V60.8659H274.28V59.4059C275.68 59.1659 276.64 58.8059 277.5 58.2859H279.24V71.1059H282.12V73.0059H273.7ZM288.566 60.9059H290.206V62.2059C290.206 66.0459 288.306 69.7459 285.226 71.2059L284.066 69.5859C286.886 68.2659 288.566 65.1659 288.566 62.2059V60.9059ZM289.006 60.9059H290.626V62.2059C290.626 64.9859 292.226 67.9459 294.946 69.2859L293.806 70.8659C290.786 69.4259 289.006 65.8459 289.006 62.2059V60.9059ZM284.626 59.4659H294.506V61.1459H284.626V59.4659ZM288.546 56.7659H290.646V60.3659H288.546V56.7659ZM296.386 56.3859H298.486V74.6659H296.386V56.3859ZM298.006 63.7059H301.326V65.4459H298.006V63.7059ZM316.557 59.4059H321.157V61.1059H316.557V59.4059ZM320.257 56.3859H322.357V65.7459H320.257V56.3859ZM310.457 66.6059H322.357V71.2259H312.557V73.7859H310.497V69.6859H320.277V68.2459H310.457V66.6059ZM310.497 72.7859H322.957V74.4459H310.497V72.7859ZM311.597 56.9659H313.297V58.5059C313.297 61.9059 311.457 64.7459 308.217 65.8459L307.137 64.1859C310.017 63.2659 311.597 61.0059 311.597 58.5059V56.9659ZM311.977 56.9659H313.677V58.5059C313.677 60.7859 315.257 62.9459 317.997 63.8259L316.917 65.4459C313.797 64.3859 311.977 61.6859 311.977 58.5059V56.9659ZM325.595 65.5859H342.155V67.2659H325.595V65.5859ZM332.995 66.6459H335.075V70.6859H332.995V66.6459ZM327.675 57.2059H340.015V63.7859H327.675V57.2059ZM337.955 58.8659H329.735V62.1259H337.955V58.8659ZM327.615 72.6059H340.315V74.3059H327.615V72.6059ZM327.615 69.0259H329.695V73.1859H327.615V69.0259ZM356.026 63.1859H359.366V64.8859H356.026V63.1859ZM349.106 68.7459H350.306C353.006 68.7459 354.686 68.6859 356.686 68.3059L356.866 70.0059C354.806 70.3859 353.066 70.4459 350.306 70.4459H349.106V68.7459ZM349.106 58.5059H355.886V60.1859H351.106V69.3459H349.106V58.5059ZM350.506 63.4259H355.106V65.0659H350.506V63.4259ZM362.086 56.3859H364.086V74.6659H362.086V56.3859ZM358.366 56.7659H360.326V73.7859H358.366V56.7659ZM373.984 57.5459H375.804V58.9259C375.804 62.8859 372.484 66.1659 368.364 67.0459L367.444 65.3059C371.064 64.6459 373.984 61.8059 373.984 58.9259V57.5459ZM374.384 57.5459H376.204V58.9259C376.204 61.8459 379.124 64.6459 382.744 65.3059L381.824 67.0459C377.704 66.1659 374.384 62.9259 374.384 58.9259V57.5459ZM366.904 70.5859H383.464V72.3059H366.904V70.5859ZM387.343 66.0459H400.023V67.7059H387.343V66.0459ZM385.303 70.7059H401.863V72.4259H385.303V70.7059ZM387.343 57.8459H399.843V59.5459H389.463V66.5259H387.343V57.8459ZM388.803 61.9059H399.443V63.5459H388.803V61.9059Z" fill="#F28482"/>
<path d="M544.86 73.0059V71.6659C549.22 67.8259 551.44 64.9659 551.44 62.5459C551.44 60.9659 550.6 59.8659 548.96 59.8659C547.8 59.8659 546.84 60.5859 546.06 61.4859L544.74 60.2259C546.02 58.8459 547.32 58.0259 549.24 58.0259C551.94 58.0259 553.68 59.7659 553.68 62.4459C553.68 65.2659 551.4 68.2059 548.28 71.2059C549.04 71.1259 549.98 71.0459 550.7 71.0459H554.38V73.0059H544.86ZM560.566 60.9059H562.206V62.2059C562.206 66.0459 560.306 69.7459 557.226 71.2059L556.066 69.5859C558.886 68.2659 560.566 65.1659 560.566 62.2059V60.9059ZM561.006 60.9059H562.626V62.2059C562.626 64.9859 564.226 67.9459 566.946 69.2859L565.806 70.8659C562.786 69.4259 561.006 65.8459 561.006 62.2059V60.9059ZM556.626 59.4659H566.506V61.1459H556.626V59.4659ZM560.546 56.7659H562.646V60.3659H560.546V56.7659ZM568.386 56.3859H570.486V74.6659H568.386V56.3859ZM570.006 63.7059H573.326V65.4459H570.006V63.7059ZM583.517 57.8859H585.217V60.8859C585.217 65.1459 583.317 69.2259 580.177 70.8259L578.897 69.1459C581.737 67.7659 583.517 64.2659 583.517 60.8859V57.8859ZM583.917 57.8859H585.597V60.8859C585.597 64.1459 587.317 67.4659 590.057 68.8259L588.777 70.4859C585.737 68.9059 583.917 65.0059 583.917 60.8859V57.8859ZM591.277 56.3859H593.377V74.6659H591.277V56.3859ZM592.897 63.6259H596.217V65.3659H592.897V63.6259ZM602.275 58.4059H604.015V60.1259C604.015 63.5259 602.115 66.4659 598.855 67.5859L597.775 65.9459C600.655 64.9659 602.275 62.5859 602.275 60.1259V58.4059ZM602.695 58.4059H604.415V60.1259C604.415 62.4659 606.055 64.6859 608.875 65.6059L607.815 67.2459C604.595 66.1859 602.695 63.3859 602.695 60.1259V58.4059ZM598.335 57.8059H608.315V59.4859H598.335V57.8059ZM610.575 56.4059H612.675V69.6859H610.575V56.4059ZM600.735 72.6059H613.195V74.3059H600.735V72.6059ZM600.735 68.4659H602.835V73.4059H600.735V68.4659ZM628.026 63.1859H631.366V64.8859H628.026V63.1859ZM621.106 68.7459H622.306C625.006 68.7459 626.686 68.6859 628.686 68.3059L628.866 70.0059C626.806 70.3859 625.066 70.4459 622.306 70.4459H621.106V68.7459ZM621.106 58.5059H627.886V60.1859H623.106V69.3459H621.106V58.5059ZM622.506 63.4259H627.106V65.0659H622.506V63.4259ZM634.086 56.3859H636.086V74.6659H634.086V56.3859ZM630.366 56.7659H632.326V73.7859H630.366V56.7659ZM645.984 57.5459H647.804V58.9259C647.804 62.8859 644.484 66.1659 640.364 67.0459L639.444 65.3059C643.064 64.6459 645.984 61.8059 645.984 58.9259V57.5459ZM646.384 57.5459H648.204V58.9259C648.204 61.8459 651.124 64.6459 654.744 65.3059L653.824 67.0459C649.704 66.1659 646.384 62.9259 646.384 58.9259V57.5459ZM638.904 70.5859H655.464V72.3059H638.904V70.5859ZM659.343 66.0459H672.023V67.7059H659.343V66.0459ZM657.303 70.7059H673.863V72.4259H657.303V70.7059ZM659.343 57.8459H671.843V59.5459H661.463V66.5259H659.343V57.8459ZM660.803 61.9059H671.443V63.5459H660.803V61.9059Z" fill="#F28482"/>
<line x1="54.0056" y1="16.5059" x2="320.006" y2="17.5059" stroke="#F28482" stroke-width="3"/>
<line x1="54.0056" y1="16.5059" x2="320.006" y2="17.5059" stroke="#F28482" stroke-width="3"/>
<line x1="355.006" y1="17.5059" x2="621.006" y2="18.5059" stroke="#F28482" stroke-width="3"/>
<path fill-rule="evenodd" clip-rule="evenodd" d="M36.5 0.00585938C46.1638 0.00585938 54 7.84018 54 17.5059C54 27.1696 46.1638 35.0059 36.5 35.0059C26.8343 35.0059 19 27.1696 19 17.5059C19 7.84018 26.8343 0.00585938 36.5 0.00585938Z" fill="#F28482"/>
<mask id="path-8-inside-1_862_9523" fill="white">
<path fill-rule="evenodd" clip-rule="evenodd" d="M29.7656 17.5061L34.257 21.9955L43.2359 13.0166"/>
</mask>
<path fill-rule="evenodd" clip-rule="evenodd" d="M29.7656 17.5061L34.257 21.9955L43.2359 13.0166" fill="#F28482"/>
<path d="M31.8865 15.3843C30.7147 14.213 28.8152 14.2134 27.6439 15.3852C26.4725 16.557 26.4729 18.4565 27.6448 19.6278L31.8865 15.3843ZM34.257 21.9955L32.1361 24.1173C33.3077 25.2884 35.2069 25.2882 36.3783 24.1168L34.257 21.9955ZM45.3572 15.1379C46.5288 13.9663 46.5288 12.0669 45.3572 10.8953C44.1856 9.72371 42.2861 9.72371 41.1146 10.8953L45.3572 15.1379ZM27.6448 19.6278L32.1361 24.1173L36.3779 19.8738L31.8865 15.3843L27.6448 19.6278ZM36.3783 24.1168L45.3572 15.1379L41.1146 10.8953L32.1357 19.8742L36.3783 24.1168Z" fill="white" mask="url(#path-8-inside-1_862_9523)"/>
<circle cx="337.5" cy="17.5059" r="15" stroke="#F28482" stroke-width="5"/>
<circle cx="36.5" cy="17.5059" r="15" stroke="#F28482" stroke-width="5"/>
<circle cx="638.5" cy="17.5059" r="15" stroke="#F28482" stroke-width="5"/>
</svg>
